<svg version="1.0" xmlns="http://www.w3.org/2000/svg"
 width="261.000000pt" height="260.000000pt" viewBox="0 0 261.000000 260.000000"
 preserveAspectRatio="xMidYMid meet">
<metadata>
Created by potrace 1.10, written by Peter Selinger 2001-2011
</metadata>
<g transform="translate(0.000000,260.000000) scale(0.100000,-0.100000)"
fill="#FFFFFF" stroke="none">
<path d="M1273 2367 c-9 -16 -141 -41 -166 -31 -9 3 -24 -3 -35 -14 -13 -13
-28 -19 -41 -15 -12 3 -21 1 -21 -5 0 -15 -85 -53 -104 -46 -21 8 -34 -24 -15
-38 11 -8 11 -11 1 -15 -9 -3 -10 -9 -2 -18 7 -9 7 -21 0 -39 -8 -22 -13 -25
-29 -17 -10 6 -21 7 -25 4 -3 -3 -6 -1 -6 6 0 7 -7 11 -16 9 -19 -4 -45 -73
-32 -86 12 -12 -7 -58 -28 -66 -27 -10 -29 2 -5 28 13 14 21 30 19 36 -3 9
-50 -47 -83 -99 -5 -9 -18 -15 -27 -13 -10 2 -18 -3 -18 -10 0 -7 -10 -19 -21
-27 -16 -9 -19 -15 -10 -21 10 -6 10 -14 -2 -36 -8 -16 -12 -35 -9 -43 3 -9 0
-11 -8 -6 -9 6 -11 4 -5 -5 6 -10 11 -9 22 5 8 13 13 14 13 5 0 -7 3 -10 6 -7
4 4 1 13 -5 21 -9 11 -10 20 -1 36 6 11 8 25 5 30 -3 5 -1 11 4 14 10 7 8 -28
-4 -56 -16 -40 12 -14 33 30 12 26 15 38 7 28 -11 -15 -15 -16 -15 -5 0 16 63
48 96 50 15 1 14 3 -5 8 -25 7 -42 31 -21 31 6 0 8 -4 5 -10 -9 -15 7 -12 32
5 20 14 22 14 26 -7 4 -22 4 -22 6 2 0 14 10 31 21 38 24 15 25 9 4 -24 -9
-13 -14 -27 -11 -30 3 -3 15 12 26 34 23 45 69 81 81 62 13 -21 -31 -86 -66
-99 -18 -6 -36 -11 -41 -10 -20 4 -33 -2 -33 -14 0 -13 -63 -77 -74 -77 -3 0
-3 15 -1 33 4 25 3 28 -4 12 -5 -11 -10 -29 -10 -39 -1 -11 -11 -31 -23 -44
-18 -20 -19 -24 -5 -19 11 4 17 1 17 -8 0 -8 -5 -15 -11 -15 -7 0 -9 -10 -5
-24 6 -26 -8 -45 -18 -24 -3 7 -3 3 0 -10 5 -19 -23 -129 -31 -120 -3 3 9 91
20 152 6 31 5 38 -6 34 -8 -3 -13 -12 -11 -22 4 -20 -24 -21 -32 0 -4 10 -2
13 7 8 9 -5 9 -4 -1 7 -14 16 -16 51 -2 65 5 5 11 18 12 29 6 34 47 92 69 98
28 7 19 32 -12 32 -18 0 -25 -6 -28 -25 -3 -27 -37 -80 -58 -93 -7 -4 -12 -18
-11 -30 2 -29 -41 -157 -53 -157 -11 0 -1 -81 12 -94 5 -6 0 -19 -12 -32 -13
-14 -17 -24 -10 -29 14 -8 14 -65 1 -65 -5 0 -10 -7 -10 -15 0 -8 7 -15 16
-15 9 0 14 -6 11 -12 -2 -7 0 -25 4 -40 4 -16 3 -30 -2 -34 -6 -4 -4 -13 6
-24 9 -9 17 -37 18 -62 2 -29 10 -51 24 -65 12 -12 29 -36 38 -53 9 -17 20
-28 25 -25 13 8 -31 85 -47 85 -7 0 -13 4 -13 9 0 12 41 1 58 -15 6 -7 13 -25
13 -41 l1 -28 7 28 6 29 23 -25 c20 -21 21 -26 8 -36 -8 -7 -21 -9 -27 -5 -7
4 -18 -1 -25 -11 -11 -15 -9 -22 17 -48 17 -16 28 -35 25 -43 -7 -17 20 -39
29 -24 4 7 2 17 -4 23 -6 6 -11 15 -11 20 0 10 69 -39 82 -57 5 -8 8 -7 8 1 0
15 -80 74 -91 67 -5 -3 -6 2 -3 10 3 9 1 16 -5 16 -7 0 -7 8 -2 23 5 12 16 22
26 22 19 0 53 -48 54 -76 1 -9 8 -22 16 -29 8 -7 15 -25 15 -41 0 -22 5 -29
19 -29 10 0 24 -7 31 -15 7 -9 19 -14 25 -11 7 2 34 -6 61 -19 27 -14 55 -25
62 -25 6 0 12 -7 12 -15 0 -8 6 -15 14 -15 7 0 19 -7 26 -15 7 -8 15 -13 19
-11 4 3 18 -4 31 -15 32 -24 14 -24 -35 0 -22 10 -45 17 -52 14 -7 -3 -13 2
-13 10 0 23 -28 29 -35 6 -8 -25 -12 -24 -69 17 -38 28 -46 38 -35 46 11 8 10
9 -3 4 -10 -3 -18 -1 -18 4 0 6 -5 10 -11 10 -6 0 -30 20 -53 45 -24 25 -46
42 -50 38 -3 -4 3 -17 15 -29 12 -13 27 -34 33 -46 6 -13 18 -23 26 -23 20 0
150 -97 150 -111 0 -6 12 -11 28 -12 60 -1 81 -5 76 -13 -3 -5 2 -9 10 -9 8 0
22 -7 31 -16 8 -9 23 -13 32 -10 12 5 14 9 5 18 -17 17 -15 33 2 19 14 -12 78
-6 106 9 19 10 50 -6 50 -25 0 -11 -12 -14 -44 -13 -25 1 -43 5 -40 9 2 4 -7
2 -21 -4 -23 -11 -20 -13 32 -19 31 -4 60 -13 64 -20 5 -8 11 -9 21 -1 21 17
118 27 118 12 0 -8 7 -6 20 6 10 9 26 15 35 11 9 -3 23 -2 33 3 46 23 93 32
107 21 10 -8 15 -7 22 4 9 16 97 76 112 76 5 0 14 6 20 14 7 8 21 12 31 9 15
-4 20 0 20 13 0 19 67 74 89 74 13 0 35 48 32 69 -1 7 2 10 8 7 5 -3 19 7 31
24 12 16 28 30 36 30 17 0 19 26 3 36 -11 6 -31 -14 -25 -26 2 -3 -5 -14 -15
-24 -22 -23 -25 -9 -4 20 8 12 12 24 8 27 -3 4 2 9 11 13 9 3 16 14 16 24 0
18 29 55 36 47 2 -2 -3 -18 -12 -36 -9 -18 -14 -35 -11 -38 8 -8 38 67 31 78
-3 5 0 9 5 9 6 0 11 9 11 21 0 15 -5 19 -15 15 -21 -8 -19 2 10 52 14 24 23
48 20 52 -3 5 -1 11 5 15 6 4 8 11 5 16 -4 5 -1 17 4 26 8 14 10 9 11 -25 0
-23 -4 -51 -10 -62 -5 -11 -15 -30 -21 -41 -8 -15 -8 -24 0 -32 8 -8 11 -6 11
5 0 9 7 24 16 33 12 11 18 40 20 97 3 45 9 87 16 95 8 10 8 20 -2 38 -9 16
-11 48 -7 103 4 59 2 82 -7 85 -7 3 -20 32 -29 66 -9 34 -20 61 -25 61 -4 0
-24 -5 -45 -11 l-38 -10 31 -29 c17 -16 30 -38 30 -52 0 -22 -1 -22 -26 7 -28
34 -15 3 15 -35 19 -23 21 -23 21 -5 0 11 3 37 7 59 5 35 4 38 -14 32 -13 -4
-25 0 -34 11 -13 15 -12 16 11 10 14 -4 30 -7 35 -7 15 0 39 -87 37 -132 -1
-21 3 -38 8 -38 6 0 10 -24 9 -52 0 -35 -3 -46 -8 -34 -7 18 -8 18 -14 2 -4
-11 -12 -14 -19 -10 -9 6 -9 3 1 -9 7 -9 17 -15 21 -12 9 6 6 -45 -5 -87 -4
-16 -11 -28 -17 -28 -5 0 -7 4 -4 9 3 5 1 35 -6 66 -10 53 -10 59 8 72 18 13
18 14 -3 19 -19 5 -21 10 -12 25 13 26 29 24 29 -3 0 -12 3 -19 6 -15 4 3 4
18 0 31 -6 26 -24 30 -38 11 -4 -5 -8 0 -8 13 0 13 -4 20 -10 17 -5 -3 -10 1
-10 9 0 20 14 20 30 1 19 -23 30 -8 26 36 -4 48 -16 65 -16 22 0 -36 -5 -42
-30 -36 -19 5 -44 52 -43 82 0 9 -3 21 -8 26 -12 16 -4 48 15 59 12 8 19 7 26
-4 8 -12 10 -12 10 -1 0 7 6 11 14 8 8 -3 20 0 26 8 9 11 7 16 -8 24 -24 13
-62 75 -62 100 0 10 -9 21 -20 24 -12 3 -20 14 -20 26 0 12 -8 25 -17 28 -28
10 -163 134 -163 149 0 8 -11 14 -27 14 -16 1 -52 14 -82 30 -47 25 -89 31
-76 10 3 -4 -31 -8 -76 -7 -54 0 -79 3 -76 11 3 7 -18 11 -64 11 -37 1 -65 -3
-63 -7 3 -4 12 -8 20 -8 8 0 12 -4 9 -10 -3 -5 -14 -10 -23 -10 -9 0 -30 -7
-45 -15 -21 -10 -27 -11 -25 -2 3 6 14 16 26 22 12 5 22 18 22 27 0 27 -13 21
-38 -17 -12 -20 -33 -41 -46 -46 -19 -9 -25 -22 -30 -62 -5 -37 -10 -47 -16
-37 -13 20 -13 50 0 50 5 0 7 7 3 16 -7 18 43 74 66 74 13 0 13 2 2 9 -21 14
44 41 103 42 49 1 50 1 16 9 -19 5 -47 6 -61 3 -16 -3 -30 0 -34 8 -6 9 -2 11
13 7 12 -4 24 -3 27 2 9 14 95 -12 95 -29 1 -13 3 -13 14 2 12 15 18 17 36 7
12 -6 28 -9 36 -6 8 3 14 1 14 -4 0 -6 9 -10 20 -10 11 0 20 -5 20 -10 0 -8
41 -8 57 -1 1 1 -8 12 -20 25 -14 16 -26 21 -33 15 -13 -11 -98 3 -118 20 -10
8 -16 9 -21 1 -9 -14 -74 -2 -97 17 -14 13 -17 13 -25 0z m-38 -49 c-4 -13
-22 -38 -41 -57 -19 -18 -34 -37 -34 -42 0 -5 -18 -9 -40 -9 -54 0 -51 16 5
24 25 4 45 12 45 17 0 6 -5 7 -11 4 -6 -4 -31 -9 -57 -11 -25 -3 -52 -9 -58
-15 -7 -6 -18 -8 -24 -4 -5 3 -10 1 -10 -4 0 -6 9 -11 20 -11 l20 0 -20 -40
c-11 -22 -26 -40 -33 -40 -8 0 -8 -3 2 -9 10 -7 10 -10 1 -16 -14 -8 -30 11
-30 37 0 9 15 25 33 37 33 21 31 29 -4 11 -15 -8 -19 -7 -19 5 0 8 5 15 11 15
7 0 9 11 6 29 -7 34 14 49 35 24 11 -15 11 -16 -5 -10 -11 4 -16 3 -12 -3 3
-6 13 -10 21 -10 10 0 13 7 9 23 -5 20 -1 24 39 35 25 6 53 9 62 5 11 -4 15
-2 11 4 -6 10 21 28 29 20 11 -11 -41 -46 -75 -52 -23 -4 -43 -10 -46 -15 -7
-12 57 -5 80 8 11 7 32 16 48 22 27 10 37 30 15 30 -9 0 -8 4 2 10 24 16 32
12 25 -12z m-260 -68 c-3 -5 -14 -10 -23 -10 -16 -1 -16 -1 1 -11 28 -17 21
-54 -18 -83 -31 -24 -35 -25 -35 -9 0 25 28 63 46 63 8 0 14 4 14 9 0 4 -11 6
-25 3 -33 -6 -32 9 3 30 31 20 46 23 37 8z m552 -1 l62 2 -15 -30 c-18 -36
-24 -37 -66 -15 -16 9 -48 22 -70 30 l-39 13 22 -32 c12 -17 31 -42 41 -53
l19 -22 -45 -6 c-25 -4 -50 -4 -56 -1 -5 3 -9 30 -7 60 1 29 5 51 9 49 4 -2
10 1 13 6 4 7 19 8 38 4 18 -5 60 -7 94 -5z m158 -19 c28 -16 59 -33 70 -39
24 -10 52 -41 38 -41 -4 0 -32 16 -62 35 -29 19 -55 35 -58 35 -3 0 -16 9 -30
20 -37 29 -16 24 42 -10z m-327 -42 c-3 -26 -8 -51 -11 -54 -3 -3 -31 5 -62
20 -30 14 -63 22 -72 19 -11 -4 5 -13 47 -27 35 -12 65 -26 67 -32 2 -6 -21
-29 -50 -52 l-55 -41 -22 24 c-13 14 -28 22 -34 18 -8 -4 -8 -3 0 6 6 6 39 16
75 22 35 6 65 12 68 15 8 7 -52 4 -94 -6 -22 -5 -41 -8 -42 -6 -7 7 20 78 32
82 8 3 12 11 9 19 -3 8 3 13 18 13 13 0 44 9 68 20 25 11 49 18 54 15 4 -3 6
-28 4 -55z m277 42 c4 -6 21 -17 40 -24 18 -8 42 -23 53 -34 11 -11 32 -25 48
-31 27 -10 25 -11 -16 -6 -25 4 -49 10 -54 15 -5 5 -21 6 -36 3 -20 -4 -34 1
-49 16 -34 34 -24 46 13 17 37 -28 52 -33 40 -14 -5 7 -2 9 7 6 41 -17 53 -19
29 -4 -14 8 -33 13 -44 9 -10 -3 -16 -1 -13 4 3 5 -8 15 -24 22 -16 7 -29 17
-29 22 0 12 27 11 35 -1z m-65 -64 c23 -7 24 -6 7 8 -12 9 -15 16 -7 21 17 10
22 1 26 -44 3 -37 -1 -45 -44 -86 -26 -26 -38 -42 -27 -37 11 6 33 24 49 41
17 17 35 31 41 31 10 0 39 -70 32 -76 -10 -8 -139 -10 -143 -2 -4 5 14 31 39
56 l46 47 -29 2 c-17 1 -30 -3 -30 -8 0 -6 7 -9 15 -5 24 9 17 -8 -15 -39
l-30 -29 0 32 c0 17 5 34 10 37 6 4 8 11 5 16 -4 5 11 10 32 10 30 2 32 3 10
6 -17 3 -25 9 -20 16 3 7 -4 3 -16 -8 -22 -19 -22 -19 -47 10 -51 63 -49 68
13 37 32 -16 69 -32 83 -36z m-449 11 c9 -12 20 -37 24 -56 l7 -33 -53 7 c-30
5 -60 8 -66 8 -30 1 -9 29 33 48 26 11 44 22 41 25 -3 3 -19 -2 -36 -11 -31
-15 -37 -11 -25 19 9 24 56 19 75 -7z m-179 -57 c-12 -10 -18 -21 -13 -25 6
-3 8 -12 5 -20 -4 -8 -11 -12 -16 -9 -6 4 -5 10 3 15 12 7 12 9 0 9 -8 0 -23
-8 -34 -17 -20 -17 -20 -17 -14 1 5 12 -3 7 -22 -13 -30 -32 -51 -40 -51 -18
0 20 14 35 40 47 23 9 22 10 -7 4 -34 -6 -46 9 -17 20 27 10 46 7 60 -11 12
-17 15 -15 44 16 17 18 34 30 38 26 4 -4 -3 -15 -16 -25z m775 0 c10 -11 24
-20 33 -20 8 0 28 -12 44 -26 25 -22 28 -29 18 -45 -16 -25 -15 -39 3 -39 8 0
19 -9 25 -19 22 -41 7 -41 -40 -1 -19 16 -39 30 -45 30 -5 -1 -1 -7 9 -15 16
-12 17 -17 6 -30 -17 -20 -30 -10 -30 26 0 24 4 29 24 29 42 0 39 18 -11 54
-51 38 -85 49 -44 15 21 -17 23 -22 12 -43 -17 -32 -54 -24 -69 16 l-11 29 35
-26 c19 -14 34 -22 34 -17 0 5 -12 17 -26 27 -34 22 -64 53 -64 65 0 19 79 11
97 -10z m-227 -51 c0 -53 -18 -63 -131 -69 -55 -3 -98 -3 -97 0 15 31 77 99
90 100 9 0 31 -21 49 -46 21 -31 34 -42 39 -34 4 7 14 9 21 6 8 -4 -7 11 -33
34 -27 23 -48 46 -48 50 0 13 94 17 102 5 4 -5 8 -26 8 -46z m318 45 c15 -4
22 -14 22 -31 0 -13 4 -22 9 -19 5 3 11 -1 15 -9 3 -8 0 -15 -6 -15 -7 0 -3
-7 8 -15 17 -13 17 -14 2 -15 -10 0 -19 5 -19 10 -1 6 -2 15 -3 21 0 6 -19 26
-41 45 -39 33 -35 40 13 28z m97 -64 c44 -45 47 -50 26 -50 -16 0 -21 5 -18
14 4 10 0 12 -14 9 -11 -3 -19 0 -19 6 0 7 -4 9 -10 6 -5 -3 -7 0 -4 8 3 8 1
18 -5 22 -10 5 -16 35 -8 35 1 0 25 -22 52 -50z m-915 35 c0 -3 -7 -18 -16
-33 l-16 -27 23 27 c22 24 26 25 43 12 22 -16 22 -16 -22 -34 -18 -7 -30 -15
-28 -18 3 -2 23 3 45 12 32 12 46 13 66 4 14 -6 25 -14 25 -18 0 -36 -91 -60
-128 -34 -12 8 -22 21 -22 28 0 23 -28 27 -33 5 -3 -10 -10 -19 -16 -19 -6 0
1 22 17 50 16 30 34 50 45 50 9 0 17 -2 17 -5z m114 -5 c17 -1 16 -3 -9 -14
-21 -9 -37 -10 -52 -3 -34 15 -28 31 8 23 17 -3 41 -6 53 -6z m52 -27 c3 -16
7 -34 10 -40 4 -15 -5 -16 -25 -4 -10 7 -11 13 -1 32 l11 24 -18 -21 c-14 -16
-22 -18 -35 -10 -15 9 -14 12 10 27 37 24 41 23 48 -8z m48 -45 c-11 -18 14
-6 51 25 l40 32 -23 -32 c-12 -17 -31 -35 -42 -38 -11 -4 -20 -11 -20 -16 0
-6 4 -8 9 -4 6 3 15 -3 20 -14 16 -28 13 -39 -4 -17 -13 17 -15 17 -21 3 -9
-25 -25 -9 -18 18 4 16 0 30 -10 40 -9 9 -16 26 -16 38 0 22 1 22 19 -3 11
-13 17 -28 15 -32z m585 15 c2 -2 -8 -3 -22 -3 -21 0 -27 5 -27 22 0 21 0 21
23 2 12 -10 24 -20 26 -21z m-649 -28 c10 -13 9 -15 -8 -15 -15 0 -20 5 -16
15 4 8 7 15 9 15 1 0 8 -7 15 -15z m523 1 c5 -14 -51 -66 -70 -66 -5 0 -26 15
-48 32 -22 18 -36 27 -32 20 5 -7 3 -12 -5 -12 -7 -1 6 -11 30 -24 51 -26 48
-32 -46 -66 -34 -12 -65 -27 -68 -31 -8 -13 -4 -12 76 21 40 17 75 29 76 27 2
-2 1 -13 -2 -25 -5 -18 -20 -24 -85 -38 l-79 -17 27 -29 c15 -15 22 -28 16
-28 -7 0 -21 11 -31 25 -16 21 -19 32 -12 56 5 17 14 37 20 45 7 7 9 17 6 23
-8 13 13 59 30 65 9 3 5 -7 -8 -24 -12 -16 -19 -32 -16 -35 3 -3 15 10 26 29
12 20 16 38 11 43 -5 5 18 10 58 11 37 2 69 5 72 7 10 11 49 4 54 -9z m32 4
c-3 -5 -10 -10 -16 -10 -5 0 -9 5 -9 10 0 6 7 10 16 10 8 0 12 -4 9 -10z m39
-48 c6 -39 4 -43 -19 -52 -17 -7 -35 -5 -61 6 l-36 15 23 25 24 25 17 -38 c9
-22 17 -30 17 -20 1 10 -4 27 -10 38 -8 16 -7 25 7 40 22 24 30 16 38 -39z
m-1064 38 c0 -5 -5 -10 -11 -10 -5 0 -7 5 -4 10 3 6 8 10 11 10 2 0 4 -4 4
-10z m1210 6 c0 -2 -3 -12 -6 -20 -5 -13 -9 -14 -20 -5 -20 16 -17 29 6 29 11
0 20 -2 20 -4z m-947 -25 c-5 -20 -49 -35 -59 -20 -2 4 8 15 23 23 37 20 42
20 36 -3z m34 -9 c-10 -2 -17 -8 -17 -14 0 -6 11 -8 26 -4 18 5 32 2 45 -10
11 -10 19 -12 19 -6 0 7 -6 12 -12 12 -7 0 -5 5 5 11 10 6 25 9 34 7 14 -3 13
-7 -8 -29 l-24 -26 -70 17 c-38 10 -60 18 -47 19 14 1 22 7 22 19 0 26 11 34
28 19 13 -11 13 -12 -1 -15z m452 -50 c-11 -34 -23 -62 -25 -62 -3 0 -24 19
-48 43 -73 73 -94 85 -27 15 50 -52 62 -70 56 -85 -5 -10 -7 -25 -6 -34 1 -8
-7 -23 -17 -32 -17 -16 -19 -15 -36 19 -9 20 -19 34 -23 31 -3 -4 4 -22 16
-42 11 -20 21 -40 21 -46 0 -12 -37 -49 -50 -49 -17 0 -33 81 -21 107 15 33
13 42 -3 20 -10 -13 -16 -15 -21 -7 -12 20 10 31 71 35 33 3 61 5 64 5 3 0 -4
6 -16 13 -49 29 -92 74 -99 104 l-6 32 88 3 c48 2 91 1 96 -3 4 -3 -2 -33 -14
-67z m537 53 c9 -37 1 -39 -25 -5 -21 29 -21 30 -1 30 13 0 22 -9 26 -25z
m-50 7 c22 -15 44 -58 45 -87 1 -29 1 -29 9 -5 l8 25 1 -27 c1 -33 -6 -34 -39
-11 -14 10 -27 17 -30 16 -3 -1 -7 1 -10 4 -3 4 1 3 8 -1 18 -11 14 5 -8 34
-11 14 -20 20 -20 13 0 -6 5 -15 10 -18 6 -3 10 -11 10 -18 0 -6 -7 -4 -16 5
-15 14 -15 21 -4 47 13 32 18 36 36 23z m-746 -7 c0 -4 -79 -45 -87 -45 -2 0
4 11 13 25 11 17 25 25 45 25 16 0 29 -2 29 -5z m15 -96 c-20 -43 -29 -48 -40
-21 -14 30 -10 50 15 84 l24 32 9 -28 c7 -21 5 -38 -8 -67z m640 75 c20 -15
19 -16 -15 -44 -34 -27 -35 -28 -42 -9 -5 13 -2 29 10 44 20 29 21 29 47 9z
m215 -60 c0 -7 -4 -16 -10 -19 -6 -3 -10 4 -10 17 0 13 -5 30 -11 38 -8 11 -9
9 -3 -10 6 -21 5 -23 -7 -13 -8 6 -16 24 -17 39 l-2 28 30 -34 c16 -18 30 -39
30 -46z m-1186 41 c6 -16 36 -21 36 -6 0 5 9 7 20 4 24 -6 25 -12 5 -40 -13
-18 -13 -24 -1 -35 7 -8 21 -28 30 -46 18 -34 29 -43 19 -14 -3 9 -3 14 2 10
4 -4 9 -24 11 -45 2 -21 9 -71 14 -111 15 -102 -2 -131 -55 -96 -32 21 -31 26
6 86 16 28 28 53 25 55 -3 3 -13 -9 -23 -27 -10 -18 -25 -41 -33 -52 -15 -20
-17 -19 -45 23 -15 24 -30 39 -32 32 -2 -6 7 -23 22 -38 25 -27 32 -46 18 -44
-5 1 -17 0 -28 -1 -14 -2 -11 -4 10 -9 28 -6 30 -10 33 -54 2 -26 0 -47 -3
-47 -4 0 -20 9 -36 21 -24 17 -29 28 -29 60 0 33 -3 39 -21 39 -12 0 -17 4
-13 11 5 8 1 8 -13 0 -11 -6 -23 -7 -27 -3 -4 3 -5 0 -1 -8 3 -9 -4 -21 -16
-28 -21 -13 -21 -12 -15 14 4 15 19 36 34 48 15 12 35 29 44 39 10 9 18 12 18
6 0 -6 -7 -17 -15 -26 -18 -18 -3 -45 20 -37 7 3 16 1 20 -5 3 -6 12 -11 18
-11 7 0 5 6 -5 13 -20 15 -32 57 -21 73 5 6 22 14 38 18 l30 7 -25 -21 c-39
-31 -15 -23 31 10 23 16 47 27 53 23 6 -3 8 -3 4 2 -4 4 -3 14 3 22 16 19 3
16 -29 -6 -15 -11 -44 -22 -65 -26 l-37 -6 40 62 c43 67 46 85 11 82 -15 -2
-21 3 -21 18 0 16 4 19 21 14 16 -5 19 -4 14 5 -5 9 -4 11 3 6 7 -4 12 -3 12
3 0 5 -4 13 -10 16 -5 3 -10 1 -10 -4 0 -15 -16 -14 -32 2 -14 13 -48 24 -35
11 7 -8 -20 -44 -34 -44 -4 0 -5 10 -3 23 2 13 -1 9 -7 -8 -6 -16 -27 -46 -46
-66 l-35 -36 33 -5 c23 -4 42 2 67 19 19 13 36 22 38 20 8 -8 -26 -121 -40
-135 -15 -15 -18 -15 -37 5 -18 17 -19 24 -9 43 6 12 9 25 5 28 -3 3 -8 -4
-12 -16 -5 -22 -23 -31 -23 -12 0 6 -5 10 -12 10 -7 0 -5 -7 5 -18 14 -15 15
-25 6 -55 -5 -21 -8 -41 -5 -46 3 -5 -1 -11 -9 -15 -12 -4 -14 9 -11 82 1 48
-1 96 -5 108 -6 17 3 31 45 73 29 28 55 49 59 45 4 -4 9 1 13 10 8 20 40 21
48 1z m266 -15 c-27 -21 -40 -25 -40 -12 0 9 38 30 55 31 6 0 -1 -8 -15 -19z
m153 -32 c5 -32 -15 -64 -34 -53 -10 7 -22 82 -14 95 12 19 42 -8 48 -42z
m-190 3 c16 -6 14 -10 -14 -36 -31 -29 -32 -27 -12 22 4 10 2 14 -4 10 -5 -3
-15 -24 -23 -46 -13 -40 -40 -55 -55 -31 -4 6 -11 7 -17 4 -7 -4 -8 -2 -4 5 4
6 2 19 -5 27 -15 18 -12 20 37 38 21 8 31 15 22 15 -9 1 -29 -4 -44 -9 -32
-12 -35 -11 -28 16 5 20 7 20 67 6 34 -8 70 -18 80 -21z m568 9 c21 0 25 -2
46 -22 12 -11 27 -17 33 -13 6 4 18 1 26 -6 12 -10 17 -10 23 -1 5 9 19 8 55
-1 45 -11 50 -16 67 -59 20 -51 14 -61 -17 -27 -10 12 -37 35 -59 51 -25 19
-17 8 23 -29 34 -32 62 -64 62 -69 0 -6 -12 -16 -26 -23 -15 -6 -24 -14 -21
-18 4 -3 14 0 22 7 14 12 16 10 10 -16 -5 -22 -4 -25 4 -14 6 8 11 23 11 33 0
9 5 17 10 17 9 0 4 -77 -6 -88 -1 -2 -15 4 -30 14 -26 18 -84 123 -84 155 0 8
-7 24 -15 35 -14 18 -14 17 -5 -9 16 -44 12 -45 -13 -3 -21 38 -39 49 -43 27
-2 -7 -1 -8 3 -1 7 14 23 2 23 -16 0 -8 -4 -13 -8 -10 -5 3 -14 -17 -21 -44
-15 -57 -28 -71 -59 -63 -26 6 -27 12 -8 38 12 17 13 16 20 -10 4 -15 10 -25
13 -22 3 4 0 20 -7 37 -11 26 -10 34 6 57 10 16 19 35 20 43 1 9 -4 6 -13 -7
-18 -27 -50 -30 -55 -5 -3 11 6 21 27 30 l30 12 -37 -4 c-23 -3 -39 0 -42 7
-2 7 -5 4 -5 -5 -1 -10 -5 -18 -11 -18 -13 0 -13 10 2 42 10 21 14 23 26 12 7
-8 18 -14 23 -14z m213 -2 c8 -33 7 -38 -6 -34 -7 3 -26 7 -41 11 l-28 6 23
19 c30 26 44 25 52 -2z m-1012 -19 c-5 -32 -17 -45 -53 -58 -20 -7 -29 -7 -29
0 0 6 -7 3 -16 -6 -9 -9 -19 -13 -23 -10 -3 4 2 11 12 16 9 6 34 28 54 50 40
43 60 46 55 8z m908 16 c0 -8 -4 -15 -10 -15 -5 0 -10 7 -10 15 0 8 5 15 10
15 6 0 10 -7 10 -15z m157 -20 c9 0 18 -5 20 -12 6 -18 -40 -7 -54 14 -7 9
-13 22 -13 27 0 6 7 2 16 -9 8 -11 22 -20 31 -20z m-593 -24 c-10 -2 -24 5
-31 15 -22 30 -14 36 18 12 25 -19 28 -24 13 -27z m-95 -32 c6 -19 11 -44 11
-55 0 -11 4 -24 10 -30 5 -5 11 -24 13 -42 4 -30 17 -58 17 -35 0 6 7 13 14
16 11 4 13 1 10 -11 -4 -11 1 -8 14 7 23 28 52 23 52 -10 0 -19 -5 -20 -47
-17 l-47 3 -3 -60 c-5 -102 -1 -95 -61 -95 -34 0 -51 -4 -47 -10 4 -6 25 -8
54 -4 l48 6 -5 -53 c-2 -30 -6 -56 -8 -58 -5 -6 -103 98 -106 112 -4 26 15 78
32 87 28 15 34 13 54 -21 10 -17 20 -29 22 -27 6 7 -31 77 -44 82 -7 3 -10 1
-7 -4 3 -6 4 -10 1 -10 -2 0 -12 -3 -20 -6 -12 -5 -15 -2 -11 12 4 15 3 14 -6
-2 -6 -11 -31 -31 -55 -43 -37 -17 -49 -19 -67 -9 -19 10 -21 9 -9 -4 15 -19
6 -26 -27 -23 -32 2 -40 25 -12 32 12 3 21 9 21 14 0 5 9 9 19 9 11 0 22 4 25
9 3 4 26 14 51 21 25 7 48 16 51 21 2 4 11 6 19 2 9 -3 15 1 15 10 0 19 -17
31 -22 16 -4 -11 -134 -69 -155 -69 -9 0 -14 17 -15 48 -1 26 -3 66 -4 90 -1
23 2 42 8 42 5 0 6 -5 2 -12 -5 -7 -2 -9 7 -6 14 6 203 -84 195 -93 -2 -2 7
-5 20 -5 30 -2 30 2 -1 18 -18 10 -22 17 -15 28 8 13 12 12 25 -5 17 -20 17
-20 10 0 -4 11 -10 28 -12 38 -3 9 -9 17 -13 17 -4 0 -15 12 -25 26 -16 24
-16 26 2 40 14 10 15 13 3 14 -38 0 -43 -16 -17 -57 25 -40 27 -88 4 -80 -11
3 -16 12 -36 57 -10 23 -11 23 -5 -8 l6 -33 -54 27 -53 27 30 9 c17 5 39 10
49 11 20 2 36 27 17 27 -6 0 -18 14 -26 31 -9 17 -19 28 -22 25 -3 -3 2 -17
11 -31 21 -33 17 -39 -39 -55 -36 -10 -49 -10 -58 -1 -9 9 -2 22 35 57 26 24
53 44 62 44 8 0 20 -13 28 -30 7 -16 15 -30 18 -30 3 0 14 19 24 43 20 46 19
46 45 -34z m400 -4 c0 -18 -67 -81 -76 -72 -2 2 4 27 13 55 22 66 64 78 63 17z
m-754 -12 c-40 -69 -45 -72 -31 -18 10 42 24 58 54 64 2 1 -8 -20 -23 -46z
m1063 26 c3 -8 9 -17 15 -20 9 -6 36 -74 37 -91 0 -9 -32 2 -45 16 -6 6 -20
35 -32 63 l-22 53 22 -4 c11 -1 23 -9 25 -17z m-387 -34 c-12 -35 -13 -47 -3
-57 9 -9 20 -5 51 20 22 18 45 32 50 32 6 0 11 5 11 12 0 6 3 9 6 5 3 -3 -6
-26 -20 -50 -22 -37 -33 -46 -61 -49 -25 -3 -36 1 -42 14 -6 13 -12 15 -23 8
-13 -9 -13 -12 0 -23 18 -14 15 -43 -6 -51 -17 -7 -18 6 -2 22 7 7 8 12 2 12
-5 0 -15 -9 -22 -20 -9 -15 -23 -20 -52 -20 -23 0 -40 -5 -40 -11 0 -7 12 -9
36 -4 l36 6 -28 -40 c-16 -22 -34 -42 -39 -44 -6 -3 -32 6 -58 18 -26 13 -47
22 -47 19 0 -2 8 -20 17 -40 17 -34 17 -36 -1 -50 -29 -21 -39 -7 -31 44 9 64
24 82 63 82 28 0 33 -4 39 -30 3 -16 9 -30 13 -30 5 0 2 21 -6 47 -24 80 -22
83 46 83 35 0 60 4 60 10 0 7 -20 9 -60 4 -53 -6 -60 -5 -60 11 0 14 -3 13
-20 -6 -23 -29 -26 -18 -4 16 9 14 20 22 25 19 5 -3 9 4 9 15 0 29 21 26 65
-9 38 -31 55 -37 55 -21 0 14 -26 32 -35 23 -5 -4 -5 -2 -2 4 4 6 -3 20 -14
30 -21 19 -21 19 23 30 23 7 53 12 64 13 21 1 21 0 5 -44z m-990 -28 c-7 -19
-8 -33 -2 -35 5 -2 3 -15 -5 -30 -8 -15 -14 -35 -14 -44 0 -9 -5 -20 -11 -24
-11 -7 -11 -1 5 82 9 47 30 106 34 95 2 -6 -1 -26 -7 -44z m1239 -29 c32 -59
31 -65 -16 -52 -16 4 -23 18 -31 60 -15 85 -4 84 47 -8z m-62 -50 c-10 -5 -8
-8 5 -8 12 0 17 -8 17 -26 0 -20 -4 -25 -16 -20 -9 3 -20 6 -25 6 -11 0 -6 67
7 110 7 23 8 23 16 -14 6 -29 5 -42 -4 -48z m-1122 35 c-10 -45 -17 -167 -9
-160 4 4 21 44 38 90 l32 82 -1 -73 -1 -73 -37 -21 c-21 -12 -40 -20 -42 -17
-4 4 -7 113 -5 177 1 12 7 22 16 22 11 0 13 -7 9 -27z m-41 -36 c-17 -41 -19
-50 -7 -43 4 2 9 -23 10 -56 2 -40 0 -58 -7 -53 -8 4 -8 -1 -2 -17 9 -24 -1
-56 -22 -69 -11 -8 -2 -39 11 -39 5 0 12 17 15 38 4 20 16 45 27 54 11 10 20
23 20 30 0 7 14 21 30 30 29 17 30 16 30 -3 0 -14 -10 -24 -32 -31 l-31 -11
25 -21 c23 -19 24 -26 19 -75 -4 -33 -11 -56 -20 -59 -9 -3 -11 1 -7 14 3 11
-1 44 -8 74 -8 30 -14 46 -15 35 -1 -17 -3 -18 -12 -5 -8 12 -9 11 -5 -5 2
-11 8 -36 12 -55 6 -33 6 -34 -12 -20 -10 8 -6 0 9 -18 15 -19 27 -38 27 -43
0 -5 6 -9 14 -9 17 0 66 -39 49 -40 -6 0 -18 -3 -27 -6 -10 -4 -16 -1 -16 9 0
9 -5 19 -12 23 -8 5 -9 2 -5 -10 4 -9 1 -26 -6 -36 -14 -24 -47 -27 -47 -4 0
8 -3 13 -7 11 -5 -3 -9 5 -10 16 -5 55 -9 76 -19 88 -17 21 -27 159 -13 175 9
12 15 12 28 2 14 -12 14 -11 3 4 -14 17 -24 71 -13 64 4 -3 7 13 7 35 1 21 7
46 14 54 20 24 22 12 5 -28z m1421 9 c0 0 8 -16 17 -33 19 -41 3 -54 -17 -15
-8 16 -23 35 -32 43 -16 12 -17 12 -9 -1 4 -8 17 -27 27 -42 l19 -28 -35 0
c-40 0 -45 14 -26 65 8 21 14 25 33 19 12 -3 22 -7 23 -8z m-1232 -38 c-3 -4
-14 -13 -25 -18 -18 -10 -19 -9 -13 17 10 42 15 46 29 26 7 -10 11 -21 9 -25z
m846 32 c0 -7 6 -6 18 1 22 14 72 -4 72 -26 0 -20 -49 -20 -76 0 -10 8 -27 15
-36 15 -28 0 -31 20 -4 20 14 0 26 -5 26 -10z m-31 -27 c2 -2 -5 -3 -17 -3
-14 0 -22 6 -22 16 0 14 3 15 18 3 9 -7 19 -15 21 -16z m241 -3 c0 -17 -26
-30 -38 -18 -20 20 -14 36 13 30 14 -2 25 -8 25 -12z m-280 -38 c0 -18 -68
-92 -85 -92 -5 0 -16 4 -23 9 -11 7 -7 18 18 52 40 56 90 73 90 31z m52 16
c11 -7 37 -30 56 -50 19 -21 39 -38 45 -38 6 0 -9 20 -33 45 -47 48 -49 62 -6
45 15 -5 32 -8 37 -4 5 3 10 -12 11 -33 1 -37 1 -37 5 -5 5 36 10 38 41 16 31
-21 31 -74 0 -74 -20 0 -20 1 -5 18 10 10 17 25 17 33 0 8 -15 -2 -33 -22 -19
-20 -53 -43 -80 -52 l-47 -16 -1 62 -2 62 -9 -83 c-6 -46 -12 -81 -15 -79 -2
3 -8 33 -13 67 -7 52 -6 67 8 89 16 25 16 25 -1 12 -15 -12 -17 -11 -17 3 0
19 13 20 42 4z m263 1 c10 -15 2 -19 -23 -12 -12 3 -19 9 -16 14 7 12 31 11
39 -2z m5 -38 c3 -3 -9 -49 -27 -101 -33 -97 -39 -100 -45 -17 -3 43 -1 47 19
47 13 0 23 4 23 9 0 4 -11 6 -25 3 -21 -4 -25 -1 -25 21 0 46 9 57 43 50 18
-3 34 -8 37 -12z m55 -11 c-4 -11 -2 -20 4 -20 6 0 11 9 11 20 0 17 7 20 44
20 30 0 46 -5 50 -15 6 -17 3 -18 -57 -34 -33 -8 -41 -7 -58 10 -19 19 -18 39
2 39 6 0 7 -9 4 -20z m-1218 -37 c-3 -10 -5 -4 -5 12 0 17 2 24 5 18 2 -7 2
-21 0 -30z m105 12 c6 -28 -3 -32 -22 -10 -7 8 -18 15 -24 15 -6 -1 4 -13 22
-29 41 -35 45 -81 7 -81 -14 0 -25 -5 -25 -11 0 -7 10 -9 25 -7 23 5 25 2 25
-30 l0 -36 -28 27 c-15 15 -34 27 -42 27 -7 0 5 -16 29 -36 33 -29 39 -39 30
-50 -6 -8 -17 -14 -25 -14 -7 0 -16 -5 -20 -11 -4 -8 0 -9 15 -4 28 9 27 1 -5
-19 -18 -13 -25 -14 -23 -4 4 24 -13 118 -23 124 -7 5 -3 -61 7 -93 8 -25 -18
-25 -42 0 -26 26 -26 32 3 77 16 24 15 24 -1 5 -17 -19 -17 -19 -11 15 3 18
11 37 17 41 7 4 -2 15 -21 29 -17 12 -29 25 -26 28 3 2 12 -1 21 -8 8 -7 22
-10 30 -6 10 3 13 2 10 -5 -4 -5 -1 -16 5 -24 9 -11 9 -15 1 -15 -6 0 -11 -7
-11 -15 0 -8 7 -15 15 -15 8 0 15 5 15 11 0 5 5 7 11 3 6 -3 4 4 -4 17 -25 40
-25 75 2 103 31 33 57 34 63 1z m1093 -5 c5 -24 -1 -44 -30 -96 -20 -36 -35
-68 -32 -70 5 -5 67 100 67 113 0 13 43 38 78 44 26 5 32 3 28 -10 -3 -9 -10
-36 -17 -59 l-13 -44 -22 44 c-13 23 -23 37 -24 30 0 -7 -4 -10 -10 -7 -13 8
-13 8 10 -55 24 -67 24 -70 3 -70 -16 0 -16 2 -3 11 11 7 4 8 -25 3 -22 -3
-46 -14 -53 -23 -11 -14 -9 -19 12 -36 l25 -20 -38 -32 -38 -32 3 47 c3 35 2
42 -5 27 -5 -11 -10 -37 -10 -57 -1 -42 -16 -57 -38 -36 -12 13 -12 20 4 54
20 43 19 41 53 66 19 14 22 20 12 30 -10 10 -15 10 -22 -2 -8 -12 -10 -12 -10
-1 0 11 -5 10 -20 -4 -13 -12 -17 -22 -11 -28 8 -8 -1 -39 -25 -85 -3 -5 -72
68 -78 83 -3 9 0 15 8 15 8 0 16 -5 18 -11 4 -13 58 -1 58 13 0 5 -6 8 -12 7
-7 -1 -25 -1 -40 0 l-26 1 20 66 c11 36 17 68 14 71 -2 3 -12 -21 -21 -53 -24
-86 -24 -86 -37 -82 -31 11 -31 36 -1 74 40 52 51 76 18 39 -62 -70 -67 -77
-56 -88 16 -16 14 -32 -2 -18 -8 6 -14 31 -15 57 0 45 1 46 45 65 63 27 78 24
103 -17 12 -19 25 -33 27 -30 3 3 -4 18 -16 34 -26 37 -26 42 -1 42 14 0 21
-7 22 -22 2 -25 5 -61 7 -94 0 -11 8 -21 16 -21 10 0 25 33 47 99 18 54 35 98
39 98 4 0 10 -14 14 -30z m-347 -60 c-2 -4 -18 -1 -37 7 l-34 14 29 30 29 30
8 -37 c4 -21 6 -41 5 -44z m-558 -5 c0 -6 -14 -22 -31 -34 -40 -30 -51 -19
-57 54 l-5 56 47 -32 c25 -18 46 -38 46 -44z m370 61 c33 -13 33 -14 11 -26
-13 -6 -23 -10 -24 -8 -1 2 -8 13 -15 26 -14 26 -14 26 28 8z m678 -47 c2 -28
7 -60 11 -72 12 -32 -4 -67 -31 -67 -18 0 -20 -2 -8 -9 8 -6 17 -8 21 -5 15 9
15 -23 -1 -58 -10 -24 -20 -34 -28 -29 -9 5 -7 12 8 26 11 10 20 23 20 29 0 6
-12 -2 -26 -18 -14 -15 -28 -25 -31 -22 -4 3 6 20 22 36 16 17 24 30 19 30 -6
0 -20 -10 -32 -22 -41 -45 -171 -130 -184 -122 -4 3 16 27 45 54 37 35 58 48
72 44 16 -4 17 -3 5 6 -13 9 -13 12 3 21 9 5 17 15 17 21 0 6 -9 3 -19 -6 -17
-15 -23 -16 -43 -4 l-23 13 30 4 30 4 -30 7 -30 8 30 1 c38 1 82 -26 66 -42
-6 -6 -11 -15 -11 -20 0 -17 29 21 36 47 4 18 16 29 38 35 20 6 24 10 11 10
-36 2 -47 15 -35 42 10 22 10 23 6 2 -9 -50 12 -14 28 47 l7 25 -16 -25 c-10
-15 -14 -18 -11 -7 4 11 9 30 12 43 10 39 19 28 22 -27z m-888 37 c0 -3 -4
-16 -10 -31 -9 -22 -12 -24 -30 -13 -26 16 -25 22 3 36 24 12 37 14 37 8z
m255 -52 c0 -37 -26 -43 -42 -9 -9 21 -8 27 5 35 26 14 37 6 37 -26z m39 27
c3 -5 0 -14 -8 -20 -11 -9 -15 -7 -19 9 -5 20 16 29 27 11z m-584 -114 c-12
-26 -25 -47 -30 -47 -14 0 -21 18 -10 25 5 3 7 19 3 35 -5 27 -3 30 23 31 l29
2 -27 4 c-23 4 -28 10 -28 31 l0 27 30 -31 31 -30 -21 -47z m235 91 c30 -13
31 -21 8 -48 -17 -20 -17 -20 -46 8 -24 22 -27 23 -19 6 6 -11 18 -27 27 -34
14 -12 14 -15 -6 -37 -13 -12 -18 -23 -13 -23 5 0 15 10 22 21 14 21 14 21 44
-7 l30 -29 -39 -6 -38 -6 45 -2 c35 -1 51 -8 77 -33 40 -39 42 -53 6 -35 -16
8 -52 22 -80 31 -29 10 -53 24 -53 31 0 7 -5 15 -10 17 -6 2 -13 21 -16 43 -2
22 -7 48 -10 57 -7 22 12 58 31 58 8 0 26 -5 40 -12z m421 -4 c31 -8 30 -24
-3 -56 -54 -51 -117 -5 -69 50 11 12 26 20 34 17 8 -3 25 -8 38 -11z m-161
-17 c6 -12 9 -30 7 -40 -3 -17 -7 -16 -33 9 -16 15 -29 24 -29 20 0 -4 12 -17
27 -30 l27 -24 -47 -71 c-26 -39 -53 -71 -60 -71 -7 0 -26 14 -42 30 l-29 30
35 0 c26 0 30 3 19 10 -8 5 -27 10 -42 10 -19 0 -39 12 -62 38 -32 34 -33 38
-19 55 24 26 34 22 92 -37 46 -47 53 -58 49 -85 -2 -17 -1 -31 4 -31 4 0 8 6
8 14 0 8 7 16 15 20 8 3 15 10 15 16 0 5 -7 10 -15 10 -17 0 -20 16 -5 25 6 3
10 23 10 44 0 24 7 45 20 59 26 28 42 28 55 -1z m611 -71 c-4 -12 -23 30 -32
72 -3 17 2 11 16 -17 11 -24 19 -49 16 -55z m-950 -11 c2 -64 2 -65 -25 -65
-20 0 -23 2 -11 10 10 7 -7 10 -59 10 -60 0 -71 2 -62 13 6 8 8 16 5 19 -3 4
2 20 11 38 13 25 19 29 31 20 12 -10 10 -15 -12 -32 -14 -11 -23 -23 -19 -26
3 -3 16 5 30 18 25 23 25 23 48 4 43 -38 62 -46 26 -11 l-36 35 25 26 c35 34
45 22 48 -59z m564 25 c0 -36 -5 -40 -45 -27 l-34 10 26 34 c20 26 29 31 39
22 8 -6 14 -24 14 -39z m-160 25 c0 -8 -4 -15 -10 -15 -5 0 -10 7 -10 15 0 8
5 15 10 15 6 0 10 -7 10 -15z m-803 -17 c-3 -8 -6 -5 -6 6 -1 11 2 17 5 13 3
-3 4 -12 1 -19z m805 -30 c0 -13 0 -33 -1 -45 -1 -13 4 -23 12 -23 7 0 30 -21
51 -46 21 -25 41 -43 44 -39 3 3 -10 21 -28 40 -18 19 -31 37 -28 41 4 3 25 8
47 11 22 3 38 9 35 14 -6 10 -64 0 -82 -14 -15 -12 -15 -12 -32 31 -14 37 -9
48 16 34 11 -6 13 -11 5 -16 -6 -4 -11 -12 -11 -18 0 -6 9 -3 19 6 23 21 88
13 95 -13 7 -22 -34 -148 -60 -186 -33 -48 -38 -63 -9 -30 l26 30 -17 -40
c-20 -50 -20 -49 -36 -36 -7 7 -33 26 -57 43 l-43 31 73 19 c41 11 76 21 78
24 10 10 -39 2 -98 -16 -36 -11 -67 -18 -69 -15 -7 7 69 125 80 125 6 0 9 2 6
5 -6 6 -144 -38 -155 -49 -11 -10 12 -7 57 9 24 8 45 13 48 11 2 -3 -5 -18
-17 -34 -12 -17 -21 -35 -21 -40 0 -26 -21 -20 -35 10 -8 18 -13 25 -10 16 6
-25 -11 -22 -29 3 -14 20 -13 25 11 55 20 28 32 34 62 34 20 0 43 5 51 11 11
8 4 9 -27 7 -24 -2 -43 -1 -43 3 0 14 59 69 74 69 9 0 17 -9 18 -22z m-795
-10 c-3 -8 -6 -5 -6 6 -1 11 2 17 5 13 3 -3 4 -12 1 -19z m1016 -48 c-4 -13 0
-20 9 -20 8 0 31 -17 51 -38 l37 -38 -17 -42 c-9 -23 -19 -42 -22 -42 -16 1
-40 71 -34 103 3 22 1 37 -7 42 -10 6 -12 0 -7 -26 6 -32 6 -33 -9 -14 -8 11
-13 28 -11 37 3 10 0 16 -5 15 -6 -1 -13 4 -16 12 -3 8 0 11 7 7 6 -4 11 -3
11 3 0 5 -8 12 -17 14 -12 3 -8 5 9 6 21 1 25 -3 21 -19z m-685 -16 c22 -4 21
-7 -20 -34 l-43 -30 -27 32 c-16 18 -28 27 -28 20 0 -7 7 -20 15 -29 62 -71
125 -153 125 -163 0 -7 17 -28 37 -48 21 -21 34 -29 30 -19 -6 16 -2 18 35 15
41 -3 42 -4 61 -61 26 -79 9 -117 -25 -54 -10 20 -10 21 6 8 9 -8 19 -11 22
-8 3 3 -8 13 -24 21 -17 9 -38 26 -46 38 -9 12 -22 23 -30 24 -22 3 -65 37
-66 52 0 7 -4 11 -9 7 -6 -3 -15 3 -21 14 -9 17 -8 20 7 15 15 -4 14 -3 -2 8
-11 7 -35 29 -53 48 -24 24 -31 28 -23 13 7 -13 9 -23 6 -23 -3 0 10 -16 30
-35 42 -43 44 -53 8 -57 -16 -2 -27 -7 -25 -13 2 -5 11 -9 20 -7 45 9 61 4
108 -29 46 -34 105 -99 89 -99 -4 0 -36 14 -71 31 -57 27 -64 33 -64 60 0 16
-5 29 -11 29 -7 0 -9 -10 -5 -25 6 -23 5 -24 -21 -14 -15 6 -36 19 -46 30 -10
11 -21 18 -25 15 -4 -2 -7 27 -6 66 0 38 -4 72 -9 75 -4 3 0 12 10 20 13 10
15 16 6 19 -7 3 -13 13 -14 22 0 14 -2 13 -8 -3 -6 -15 -9 -12 -14 19 -9 57
-3 64 51 59 26 -2 58 -6 70 -9z m668 -51 c18 -36 29 -73 29 -98 0 -39 -1 -40
-45 -48 -95 -18 -95 -18 -79 -28 12 -7 11 -9 -3 -9 -10 0 -18 6 -18 13 0 23
31 107 40 107 4 0 27 -16 50 -35 62 -51 63 -42 3 14 -29 27 -53 51 -53 54 0 2
5 19 11 38 6 19 13 40 15 47 6 21 19 7 50 -55z m-806 37 c0 -4 3 -21 6 -38 l6
-31 -36 11 c-41 13 -43 18 -16 43 11 10 17 22 14 26 -3 5 2 6 10 3 9 -3 16
-10 16 -14z m202 -45 c-2 -27 -10 -64 -17 -82 -12 -28 -12 -33 1 -33 9 0 14
10 14 28 0 50 16 58 35 18 17 -35 17 -37 -1 -51 -11 -8 -23 -15 -28 -15 -5 0
-7 -2 -4 -5 3 -3 17 0 32 6 23 11 28 10 41 -7 25 -34 18 -44 -30 -44 -25 0
-45 4 -45 9 0 5 19 7 43 5 l42 -4 -40 10 c-22 6 -45 17 -52 26 -6 8 -14 15
-18 14 -4 -1 -23 17 -42 41 l-35 44 49 6 48 6 -57 1 c-32 1 -58 5 -57 10 0 12
93 70 109 68 12 -1 14 -13 12 -51z m95 4 c26 -23 50 -48 51 -56 2 -9 11 -13
22 -10 30 8 42 -7 35 -45 -5 -27 -15 -39 -41 -52 -30 -14 -33 -19 -24 -36 6
-11 16 -20 23 -20 7 0 6 4 -3 10 -13 8 -12 10 3 10 21 0 22 -17 1 -66 l-17
-39 -13 45 c-8 25 -12 51 -9 57 2 7 -2 16 -9 20 -8 5 -31 39 -51 77 l-38 68
54 -5 54 -6 -45 11 c-69 16 -70 16 -70 41 0 49 16 48 77 -4z m-390 9 c-1 -15
4 -23 13 -24 8 0 34 -6 58 -14 40 -13 54 -32 31 -45 -7 -5 -6 -12 4 -23 16
-19 28 -92 15 -92 -5 0 -22 10 -38 22 l-29 21 20 25 c10 14 18 26 16 28 -2 2
-31 4 -65 6 -52 2 -66 6 -86 28 -20 20 -22 28 -13 41 9 12 61 46 74 49 2 0 2
-10 0 -22z m460 -13 c17 -7 35 -10 39 -7 4 4 5 1 2 -7 -8 -27 -51 -22 -88 10
-31 28 -32 30 -10 24 14 -4 39 -13 57 -20z m770 -9 c-21 -16 -22 -62 -2 -82
21 -22 19 -34 -7 -31 -15 1 -23 -3 -23 -13 1 -8 -9 -28 -20 -45 -32 -45 -37
-55 -28 -55 4 0 23 23 42 51 19 27 36 48 38 45 6 -6 -34 -83 -47 -91 -6 -4 -7
-11 -4 -17 4 -7 2 -8 -4 -4 -7 4 -14 -3 -18 -19 -6 -26 -18 -32 -29 -16 -3 5
-1 13 5 16 6 4 10 14 9 23 -3 27 13 76 30 90 9 8 10 10 2 6 -10 -5 -11 -1 -7
14 15 45 -27 77 -64 51 -11 -8 -7 -9 18 -4 17 4 32 4 32 1 0 -3 -14 -21 -30
-40 -17 -19 -26 -37 -21 -40 5 -3 19 10 31 29 25 40 34 41 25 2 -8 -30 -52
-57 -64 -39 -4 7 -8 34 -9 60 l-2 47 55 32 c54 31 71 27 39 -8 -9 -10 -14 -25
-11 -33 9 -23 38 -8 36 18 0 11 -1 26 0 33 1 16 32 45 40 38 3 -4 -2 -12 -12
-19z m73 -18 c0 -4 -6 -8 -13 -8 -7 0 -17 -10 -22 -22 -6 -13 -17 -23 -25 -23
-21 0 -25 43 -5 65 14 15 21 17 41 8 13 -6 24 -15 24 -20z m-790 -18 c0 -5 -7
-10 -16 -10 -8 0 -12 5 -9 10 3 6 10 10 16 10 5 0 9 -4 9 -10z m57 -15 c30
-26 20 -32 -22 -13 -14 6 -25 17 -25 25 0 20 16 16 47 -12z m477 -4 c9 -16 12
-31 9 -35 -10 -10 -33 -7 -33 5 0 5 4 8 8 5 5 -3 9 1 9 9 0 20 -7 19 -22 -2
-20 -27 -8 -44 22 -32 31 11 29 13 36 -33 7 -44 7 -43 -50 -22 -37 14 -41 19
-32 35 5 11 8 23 5 28 -7 10 16 71 26 71 4 0 14 -13 22 -29z m-470 -35 c10 -6
24 -28 31 -49 l13 -37 -32 -1 c-17 0 -40 -4 -51 -9 -15 -7 -6 -9 30 -7 44 2
51 -1 63 -23 l12 -25 -4 28 c-3 25 -1 27 32 27 l35 0 -21 -23 c-12 -13 -22
-27 -22 -33 0 -5 12 6 26 24 14 17 34 32 46 32 11 0 18 -3 16 -7 -32 -67 -28
-64 -82 -59 -81 8 -139 30 -153 57 -21 41 -16 56 28 73 23 9 39 19 36 22 -3 3
-19 -2 -36 -10 -39 -21 -38 -21 -33 14 4 26 8 30 26 24 11 -3 29 -11 40 -18z
m379 -19 c-4 -6 -10 -2 -14 9 -12 31 -9 40 6 20 8 -10 11 -24 8 -29z m-898 0
c-14 -22 -14 -26 0 -37 8 -7 12 -16 9 -21 -3 -5 1 -9 9 -9 7 0 23 -10 34 -22
23 -26 39 -88 22 -88 -6 0 -7 -5 -3 -12 4 -7 3 -8 -4 -4 -6 4 -8 14 -5 23 4
11 3 14 -5 9 -15 -9 -16 6 -1 21 9 9 6 10 -10 6 -15 -4 -27 1 -36 13 -22 30
-17 42 6 14 19 -24 20 -24 9 -2 -6 13 -18 26 -26 29 -8 3 -14 15 -14 27 0 12
-9 27 -20 34 -27 16 -16 37 21 40 29 2 29 2 14 -21z m581 11 c4 -7 3 -8 -4 -4
-7 4 -12 5 -12 2 0 -3 23 -17 50 -31 28 -14 50 -30 50 -35 0 -6 -20 -10 -45
-10 -40 0 -47 3 -55 26 -18 47 -6 88 16 52z m332 -96 c-3 -32 -7 -38 -35 -47
-18 -5 -33 -13 -33 -18 0 -5 6 -7 13 -4 48 18 57 18 57 2 0 -14 -6 -16 -27
-11 -23 5 -25 4 -10 -4 21 -14 22 -33 2 -50 -9 -7 -26 -27 -37 -43 l-22 -30
33 19 c18 10 40 28 49 39 9 11 10 14 2 8 -20 -18 -35 -16 -20 2 18 22 35 18
48 -9 7 -17 7 -27 -1 -35 -6 -6 -7 -11 -1 -11 5 0 -13 -14 -40 -31 -32 -20
-66 -33 -95 -35 -75 -5 -77 -6 -51 -14 24 -8 23 -8 -7 -9 -18 -1 -33 4 -33 9
0 16 48 31 76 24 16 -4 26 -1 30 9 3 9 22 18 42 22 21 3 44 11 52 16 11 8 5 9
-20 4 -19 -4 -46 -8 -60 -9 -14 0 -36 -7 -49 -15 -13 -7 -37 -17 -53 -22 -26
-7 -34 -4 -60 24 -30 31 -30 19 0 -15 14 -17 12 -18 -36 -18 l-51 0 11 31 c15
43 4 46 -42 9 l-42 -33 -41 41 -41 41 80 -4 c43 -2 87 -6 97 -10 9 -4 24 -2
33 6 8 7 34 16 57 20 163 28 199 37 191 50 -4 6 -11 6 -20 -2 -8 -6 -23 -9
-34 -6 -11 3 -20 2 -20 -3 0 -4 -17 -10 -37 -14 -21 -3 -49 -8 -63 -11 -14 -3
-18 -2 -10 1 8 4 35 16 60 27 25 11 58 20 74 19 24 -1 26 1 13 11 -14 11 -13
18 9 67 35 74 45 86 56 65 5 -8 8 -32 6 -53z m-68 4 l-20 -48 -37 23 c-59 35
-59 36 8 57 35 10 65 18 67 17 1 -1 -7 -23 -18 -49z m-415 25 c-3 -6 -16 -11
-28 -11 -21 1 -21 1 3 15 27 14 36 13 25 -4z m538 -6 c20 -8 39 -19 42 -25 7
-11 -14 -44 -23 -35 -3 2 1 12 9 21 12 15 10 15 -25 0 -21 -9 -40 -16 -42 -16
-2 0 -4 16 -4 35 0 41 -3 39 43 20z m108 -29 c-11 -26 -31 -36 -31 -14 0 13
31 50 37 44 2 -2 -1 -15 -6 -30z m-326 -8 c5 4 5 2 2 -4 -4 -7 5 -20 21 -29
l27 -18 -20 23 -20 23 34 -18 c48 -24 22 -37 -58 -29 -57 6 -60 8 -49 28 15
28 30 37 44 26 6 -6 15 -6 19 -2z m-268 -38 c29 -26 31 -31 16 -36 -10 -3 -35
-12 -57 -19 -21 -8 -42 -12 -46 -10 -10 6 31 95 43 95 5 0 25 -14 44 -30z
m481 13 c-28 -34 -31 -48 -5 -24 19 17 27 20 27 10 0 -9 7 -5 19 10 16 21 41
23 41 2 0 -10 -49 -33 -58 -27 -9 5 -47 -22 -40 -29 2 -3 18 1 34 9 51 24 77
30 72 15 -5 -14 -104 -46 -113 -37 -3 2 -7 18 -11 34 -5 25 -2 32 18 41 32 16
33 15 16 -4z m-783 -101 c-9 -10 -83 40 -88 59 -12 44 7 41 49 -7 23 -27 41
-50 39 -52z m392 66 c8 -7 19 -21 24 -33 8 -18 9 -18 6 5 -1 19 3 26 21 28 25
4 26 2 10 -32 -14 -32 -37 -40 -108 -42 -30 0 -72 -2 -94 -2 l-38 -2 23 -20
c13 -10 19 -19 14 -20 -6 0 -16 5 -23 12 -6 6 -14 9 -17 6 -3 -3 14 -17 39
-32 58 -34 61 -40 22 -44 -17 -1 -42 -4 -55 -5 -13 -1 -26 4 -28 11 -4 9 6 11
39 8 l43 -5 -37 11 c-21 6 -38 17 -38 25 0 14 -16 18 -22 5 -1 -5 -20 -1 -42
8 l-38 18 37 4 c20 2 38 0 41 -4 10 -15 25 -8 34 16 7 19 24 29 77 45 l68 20
30 -27 c16 -15 8 -3 -20 25 l-49 53 33 -10 c18 -5 40 -15 48 -22z m-413 11
c20 -10 42 -46 32 -56 -1 -1 -18 13 -36 32 -36 37 -35 42 4 24z m591 -18 c22
-5 33 -9 25 -10 -8 0 -44 -15 -79 -31 -35 -17 -66 -29 -68 -27 -2 3 6 21 18
41 22 38 33 41 104 27z m-495 -31 c30 -16 32 -19 13 -20 -13 0 -23 -4 -23 -10
0 -8 22 -7 83 5 11 2 17 -1 14 -8 -2 -7 -17 -13 -33 -15 -49 -6 -51 -20 -6
-39 38 -16 59 -39 48 -50 -8 -8 -91 58 -98 78 -4 10 -14 19 -22 19 -8 0 -19
14 -25 30 -12 36 -2 38 49 10z m800 -3 c0 -5 -6 -7 -13 -4 -7 2 -26 -8 -42
-24 -31 -32 -48 -33 -54 -4 -2 13 1 16 14 12 9 -4 13 -3 10 3 -3 5 9 13 27 18
43 11 58 11 58 -1z m-483 -110 c-8 -18 -20 -27 -37 -27 -23 0 -23 1 10 29 19
16 36 28 37 27 2 -1 -3 -14 -10 -29z m-317 -15 c29 -11 59 -42 42 -42 -6 0
-15 7 -20 17 -6 10 -16 14 -26 10 -11 -4 -15 -3 -11 4 4 6 1 10 -6 8 -28 -3
-50 1 -45 9 6 11 33 8 66 -6z m278 -38 c6 -11 16 -13 37 -8 25 6 26 8 10 14
-10 3 8 6 40 6 38 -1 60 -5 63 -14 3 -9 -5 -11 -27 -7 -17 3 -31 1 -31 -3 0
-5 -12 -10 -27 -11 -88 -7 -88 -7 -91 17 -4 25 13 30 26 6z"/>
<path d="M1525 2230 c28 -12 37 -12 30 0 -3 6 -16 10 -28 9 -21 0 -21 -1 -2
-9z"/>
<path d="M1077 2139 c-22 -11 -37 -23 -34 -25 5 -6 87 33 87 41 0 9 -14 4 -53
-16z"/>
<path d="M1640 2122 c0 -14 41 -23 59 -12 13 8 12 9 -6 10 -12 0 -28 3 -37 6
-9 3 -16 2 -16 -4z"/>
<path d="M1905 1940 c12 -40 26 -59 19 -25 -4 17 -11 35 -16 40 -7 7 -8 1 -3
-15z"/>
<path d="M761 1765 c-1 -5 8 -21 19 -35 11 -14 20 -20 20 -14 0 7 -9 22 -20
35 -10 13 -19 20 -19 14z"/>
<path d="M935 1560 c28 -12 37 -12 30 0 -3 6 -16 10 -28 9 -21 0 -21 -1 -2 -9z"/>
<path d="M1005 1710 c10 -17 155 -87 155 -75 0 3 -36 23 -81 45 -44 23 -78 36
-74 30z"/>
<path d="M1209 1607 c15 -19 41 -23 41 -7 0 6 -4 10 -9 10 -5 0 -18 3 -28 7
-16 6 -16 5 -4 -10z"/>
<path d="M1920 1771 c0 -6 5 -13 10 -16 6 -3 10 1 10 9 0 9 -4 16 -10 16 -5 0
-10 -4 -10 -9z"/>
<path d="M532 1480 c0 -19 2 -27 5 -17 2 9 2 25 0 35 -3 9 -5 1 -5 -18z"/>
<path d="M566 1355 c18 -45 18 -50 -3 -34 -10 7 -5 -1 11 -19 16 -17 31 -30
33 -28 4 4 -45 116 -51 116 -3 0 2 -16 10 -35z"/>
<path d="M1860 1529 c0 -5 5 -7 10 -4 6 3 10 8 10 11 0 2 -4 4 -10 4 -5 0 -10
-5 -10 -11z"/>
<path d="M915 1490 c-10 -11 -14 -20 -8 -20 5 0 18 9 28 20 10 11 14 20 8 20
-5 0 -18 -9 -28 -20z"/>
<path d="M1365 1380 c3 -5 16 -15 28 -21 22 -12 22 -12 3 10 -19 21 -43 30
-31 11z"/>
<path d="M1565 1253 l-18 -28 27 24 c28 26 31 31 17 31 -5 0 -17 -12 -26 -27z"/>
<path d="M1105 1170 c-16 -11 -26 -20 -22 -20 11 0 67 29 67 35 0 10 -16 4
-45 -15z"/>
<path d="M1145 1140 c-10 -22 -16 -43 -13 -46 3 -2 13 14 22 37 22 54 15 61
-9 9z"/>
<path d="M654 1239 c-3 -6 6 -23 21 -38 l28 -26 -22 29 c-12 16 -20 31 -18 33
8 7 62 -27 69 -44 6 -17 7 -17 7 0 1 16 3 16 32 2 17 -9 33 -14 36 -11 3 3
-17 14 -43 26 -27 12 -57 26 -66 31 -23 12 -35 11 -44 -2z"/>
<path d="M740 1130 c0 -5 5 -10 11 -10 5 0 7 5 4 10 -3 6 -8 10 -11 10 -2 0
-4 -4 -4 -10z"/>
<path d="M1582 885 c0 -16 2 -22 5 -12 2 9 2 23 0 30 -3 6 -5 -1 -5 -18z"/>
<path d="M1410 877 c15 -17 113 -46 127 -38 13 7 9 11 -18 19 -43 14 -116 26
-109 19z"/>
<path d="M1203 913 c9 -2 23 -2 30 0 6 3 -1 5 -18 5 -16 0 -22 -2 -12 -5z"/>
<path d="M1465 2290 c-3 -5 3 -10 15 -10 12 0 18 5 15 10 -3 6 -10 10 -15 10
-5 0 -12 -4 -15 -10z"/>
<path d="M859 2213 c-1 -5 -1 -11 -1 -14 1 -4 -12 -5 -29 -3 -23 3 -31 -1 -38
-19 -10 -26 -70 -73 -88 -69 -7 2 -13 -6 -13 -18 0 -11 -7 -31 -16 -44 -22
-35 1 -44 34 -15 34 31 66 70 68 84 0 5 2 15 2 21 2 10 40 32 53 30 10 -1 49
35 49 46 0 10 -20 11 -21 1z m-117 -133 c-18 -17 -38 -30 -45 -30 -6 0 4 14
23 30 45 39 65 39 22 0z"/>
<path d="M856 2166 c-21 -10 -24 -14 -13 -19 8 -3 23 3 33 14 20 22 19 22 -20
5z"/>
<path d="M728 1933 c7 -3 16 -2 19 1 4 3 -2 6 -13 5 -11 0 -14 -3 -6 -6z"/>
<path d="M688 1103 c6 -2 18 -2 25 0 6 3 1 5 -13 5 -14 0 -19 -2 -12 -5z"/>
<path d="M860 921 c0 -24 13 -39 28 -34 9 4 14 3 10 -2 -9 -10 10 -35 27 -35
19 0 14 29 -7 36 -10 3 -18 9 -18 14 0 5 -9 14 -20 20 -12 6 -20 7 -20 1z"/>
</g>
</svg>
